<svg height="512pt" viewBox="-26 0 512 512" width="512pt" xmlns="http://www.w3.org/2000/svg"><path d="m56.148438 316.34375c6.476562 3.539062 14.359374 3.257812 20.566406-.730469l153.355468-98.496093 153.351563 98.496093c6.152344 3.949219 14.15625 4.234375 20.570313.730469 6.476562-3.539062 10.5-10.320312 10.5-17.699219 0-6.898437-3.464844-13.242187-9.269532-16.972656l-167.652344-107.679687v-40.558594c0-.054688-.003906-.109375-.003906-.164063 12.863282 1.195313 28.96875 4.734375 43.40625 13.921875 3.441406 2.191406 7.746094 2.230469 11.230469.105469 33.5625-20.492187 74.253906-5.484375 85.875-.417969.039063.019532.082031.035156.125.054688 6.414063 2.769531 13.496094-3.140625 12.1875-9.929688-6.539063-33.925781-26.183594-64.910156-55.316406-87.253906-27.382813-21.003906-61.753907-33.183594-97.503907-34.683594v-7.566406c0-4.140625-3.359374-7.5-7.5-7.5-4.144531 0-7.5 3.359375-7.5 7.5v7.566406c-35.75 1.5-70.125 13.679688-97.507812 34.683594-29.128906 22.34375-48.777344 53.328125-55.316406 87.253906-1.3125 6.808594 5.75 12.679688 12.1875 9.929688.03125-.011719.0625-.027344.09375-.042969 11.707031-5.097656 52.371094-20.070313 85.90625.40625 3.367187 2.054687 7.820312 2.066406 11.230468-.105469 14.441407-9.1875 30.542969-12.726562 43.410157-13.917968-.003907.050781-.003907.105468-.003907.160156v40.558594l-167.65625 107.679687c-5.800781 3.730469-9.265624 10.074219-9.265624 16.972656 0 7.378907 4.023437 14.160157 10.5 17.699219zm316.859374-187.449219c-7.664062-2.574219-17.625-5.199219-28.78125-6.410156-19.121093-2.078125-36.457031.484375-51.671874 7.617187-3.292969-29.652343-12.667969-71.273437-38.730469-98.464843 26.503906 3.882812 51.511719 14.207031 72.125 30.015625 23.019531 17.65625 39.441406 41.226562 47.058593 67.242187zm-257.09375-6.410156c-11.160156 1.210937-21.117187 3.835937-28.785156 6.410156 7.617188-26.015625 24.039063-49.585937 47.0625-67.242187 20.605469-15.804688 45.605469-26.128906 72.097656-30.011719-6.648437 6.921875-12.542968 15.113281-17.632812 24.515625-4.554688 8.414062 8.550781 15.71875 13.191406 7.140625 7.558594-13.96875 17.039063-24.746094 28.222656-32.09375 31.890626 20.9375 43.203126 65.128906 47.15625 96.949219-16.976562-7.734375-34.339843-9.964844-46.929687-10.347656-.074219-.003907-.152344-.003907-.226563-.003907-.078124 0-.152343 0-.230468.003907-12.59375.382812-29.953125 2.613281-46.9375 10.351562 1.488281-12.027344 3.734375-23.398438 6.707031-33.941406 2.621094-9.285156-11.800781-13.40625-14.433594-4.074219-3.492187 12.378906-6.039062 25.777344-7.601562 39.957031-15.210938-7.128906-32.546875-9.691406-51.660157-7.613281zm-52.890624 171.808594 167.046874-107.289063s166.839844 107.15625 167.042969 107.289063c5.417969 3.476562.046875 12.3125-5.585937 8.699219 0 0-154.136719-99-154.207032-99.046876-4.28125-2.75-10.191406-2.765624-14.5 0 0 0-153.914062 98.855469-154.210937 99.046876-5.601563 3.597656-11.191406-5.09375-5.585937-8.699219zm0 0"/><path d="m250.289062 332.160156c-6.800781 0-12.332031 5.53125-12.332031 12.332032v63.664062c0 6.800781 5.53125 12.332031 12.332031 12.332031h81.664063c6.800781 0 12.332031-5.53125 12.332031-12.332031v-63.664062c0-6.800782-5.53125-12.332032-12.332031-12.332032zm78.996094 73.328125h-76.324218v-58.328125h76.324218zm0 0"/><path d="m445.804688 468.789062c-2.996094-14.773437-14.921876-26.117187-29.851563-28.332031-5.046875-14.066406-16.425781-23.765625-35.835937-23.765625-.671876 0 .667968 0 0 0v-82.039062c0-4.140625-3.355469-7.5-7.5-7.5-4.140626 0-7.5 3.359375-7.5 7.5v134.867187h-149.15625v-124.726562c0-6.964844-5.664063-12.632813-12.632813-12.632813h-70.394531c-6.964844 0-12.628906 5.667969-12.628906 12.632813v124.726562h-25.285157v-134.867187c0-4.140625-3.355469-7.5-7.5-7.5-4.140625 0-7.5 3.359375-7.5 7.5v82.039062c-.664062 0 .675781 0 0 0-18.886719 0-30.785156 9.699219-35.832031 23.765625-14.929688 2.214844-26.859375 13.558594-29.851562 28.332031-8.394532 3.261719-14.335938 11.476563-14.335938 20.851563 0 12.328125 10.03125 22.359375 22.359375 22.359375h415.417969c12.332031 0 22.363281-10.03125 22.363281-22.363281 0-9.371094-5.941406-17.585938-14.335937-20.847657zm-310.503907-121.628906h65.660157v122.359375h-65.660157zm-120.300781 142.476563c0-3.796875 2.960938-7.015625 6.746094-7.324219 3.773437-.308594 6.722656-3.382812 6.878906-7.164062.46875-11.207032 9.5625-19.996094 20.746094-20.085938.175781.011719.351562.023438.53125.023438 3.664062.035156 6.84375-2.554688 7.496094-6.167969 1.796874-9.980469 10.464843-17.226563 20.609374-17.226563h2.011719v37.828125h-6.507812c-10.613281 0-19.25 8.636719-19.25 19.25 0 2.609375-.128907 5.570313.472656 8.230469h-32.375c-4.058594 0-7.359375-3.304688-7.359375-7.363281zm58.511719 7.363281c-2.347657 0-4.253907-1.90625-4.253907-4.25v-3.980469c0-2.34375 1.90625-4.25 4.253907-4.25h313.117187c2.34375 0 4.25 1.90625 4.25 4.25v3.980469c0 2.34375-1.90625 4.25-4.25 4.25zm364.265625 0s-32.367188 0-32.371094 0c.707031-.015625.472656-7.601562.472656-8.230469 0-10.613281-8.636718-19.25-19.25-19.25h-6.511718v-37.828125h2.015624c10.140626 0 18.808594 7.246094 20.609376 17.226563.644531 3.574219 3.753906 6.171875 7.378906 6.171875.039062 0 .078125 0 .117187-.003906.171875 0 .34375-.007813.527344-.019532 11.183594.085938 20.28125 8.875 20.746094 20.082032.160156 3.785156 3.109375 6.855468 6.882812 7.164062 3.78125.3125 6.746094 3.53125 6.746094 7.328125 0 4.054687-3.304687 7.359375-7.363281 7.359375zm0 0"/></svg>